<svg xmlns="http://www.w3.org/2000/svg" xmlns:xlink="http://www.w3.org/1999/xlink" width="500" zoomAndPan="magnify" viewBox="0 0 375 374.999991" height="500" preserveAspectRatio="xMidYMid meet" version="1.0"><defs><clipPath id="1793b7a367"><path d="M 82 26 L 375 26 L 375 269 L 82 269 Z M 82 26 " clip-rule="nonzero"/></clipPath><clipPath id="7b991a092d"><path d="M 83.457031 19.851562 L 375.121094 26.914062 L 369.203125 271.339844 L 77.539062 264.277344 Z M 83.457031 19.851562 " clip-rule="nonzero"/></clipPath><clipPath id="f8e12646b8"><path d="M 83.457031 19.851562 L 375.121094 26.914062 L 369.203125 271.339844 L 77.539062 264.277344 Z M 83.457031 19.851562 " clip-rule="nonzero"/></clipPath><clipPath id="ae60427b55"><path d="M 83.457031 19.851562 L 375.121094 26.914062 L 369.203125 271.339844 L 77.539062 264.277344 Z M 83.457031 19.851562 " clip-rule="nonzero"/></clipPath></defs><g clip-path="url(#1793b7a367)"><g clip-path="url(#7b991a092d)"><g clip-path="url(#f8e12646b8)"><g clip-path="url(#ae60427b55)"><path fill="#000000" d="M 242.433594 266.6875 L 196.972656 221.300781 L 148.113281 263.316406 C 147.023438 264.449219 145.492188 265.121094 143.816406 265.078125 C 140.625 265.003906 138.109375 262.363281 138.1875 259.175781 L 140.472656 164.914062 L 83.738281 108.308594 C 81.476562 106.054688 81.496094 102.414062 83.726562 100.152344 C 84.476562 99.390625 85.410156 98.890625 86.386719 98.632812 L 367.164062 26.933594 C 370.253906 26.15625 373.378906 28.007812 374.179688 31.097656 C 374.589844 32.667969 374.292969 34.269531 373.503906 35.550781 L 251.59375 265.300781 C 250.109375 268.101562 246.628906 269.175781 243.828125 267.691406 C 243.289062 267.417969 242.828125 267.074219 242.433594 266.6875 Z M 188.796875 213.160156 L 151.738281 176.183594 L 150.035156 246.503906 Z M 147.367188 155.53125 L 330.441406 48.222656 L 99.039062 107.308594 Z M 354.007812 47.753906 L 155.769531 163.914062 L 245.058594 253.039062 Z M 354.007812 47.753906 " fill-opacity="1" fill-rule="nonzero"/></g></g></g></g><path stroke-linecap="round" transform="matrix(2.157695, -2.091125, 2.249511, 2.321123, 142.216958, 307.983789)" fill="none" stroke-linejoin="miter" d="M 0.500424 0.000068881 L 26.710836 0.000345744 " stroke="#000000" stroke-width="1" stroke-opacity="1" stroke-miterlimit="4"/><path stroke-linecap="round" transform="matrix(2.153267, -2.086833, 2.249511, 2.321123, 129.086919, 353.804274)" fill="none" stroke-linejoin="miter" d="M 0.499922 0.000301255 L 40.520543 0.000618463 " stroke="#000000" stroke-width="1" stroke-opacity="1" stroke-miterlimit="4"/><path stroke-linecap="round" transform="matrix(2.157695, -2.091125, 2.249511, 2.321123, 48.141549, 213.039214)" fill="none" stroke-linejoin="miter" d="M 0.499946 -0.000679657 L 26.711292 0.00043825 " stroke="#000000" stroke-width="1" stroke-opacity="1" stroke-miterlimit="4"/><path stroke-linecap="round" transform="matrix(2.153267, -2.086833, 2.249511, 2.321123, 1.126727, 226.364032)" fill="none" stroke-linejoin="miter" d="M 0.500014 -0.000118031 L 40.520635 0.000199176 " stroke="#000000" stroke-width="1" stroke-opacity="1" stroke-miterlimit="4"/><path stroke-linecap="round" transform="matrix(-2.119173, -2.119173, 2.285598, -2.285598, 245.742497, 261.492084)" fill="none" stroke-linejoin="miter" d="M 0.49958 -0.0000904652 L 72.824741 -0.0000904652 " stroke="#000000" stroke-width="1" stroke-opacity="1" stroke-miterlimit="4"/></svg>