<svg xmlns="http://www.w3.org/2000/svg" xmlns:xlink="http://www.w3.org/1999/xlink" width="500" zoomAndPan="magnify" viewBox="0 0 375 374.999991" height="500" preserveAspectRatio="xMidYMid meet" version="1.0"><defs><clipPath id="86845d8d1c"><path d="M 90 43 L 359 43 L 359 266 L 90 266 Z M 90 43 " clip-rule="nonzero"/></clipPath><clipPath id="acfdcc2361"><path d="M 91.917969 37.5 L 359.585938 43.980469 L 354.160156 268.167969 L 86.488281 261.683594 Z M 91.917969 37.5 " clip-rule="nonzero"/></clipPath><clipPath id="1d776646c3"><path d="M 91.917969 37.5 L 359.585938 43.980469 L 354.160156 268.167969 L 86.488281 261.683594 Z M 91.917969 37.5 " clip-rule="nonzero"/></clipPath><clipPath id="c42436bee9"><path d="M 91.917969 37.5 L 359.585938 43.980469 L 354.160156 268.167969 L 86.488281 261.683594 Z M 91.917969 37.5 " clip-rule="nonzero"/></clipPath></defs><path fill="#ffffff" d="M 17.25 0 L 357.75 0 C 362.324219 0 366.710938 1.816406 369.949219 5.050781 C 373.183594 8.289062 375 12.675781 375 17.25 L 375 357.75 C 375 362.324219 373.183594 366.710938 369.949219 369.949219 C 366.710938 373.183594 362.324219 375 357.75 375 L 17.25 375 C 12.675781 375 8.289062 373.183594 5.050781 369.949219 C 1.816406 366.710938 0 362.324219 0 357.75 L 0 17.25 C 0 12.675781 1.816406 8.289062 5.050781 5.050781 C 8.289062 1.816406 12.675781 0 17.25 0 " fill-opacity="1" fill-rule="nonzero"/><g clip-path="url(#86845d8d1c)"><g clip-path="url(#acfdcc2361)"><g clip-path="url(#1d776646c3)"><g clip-path="url(#c42436bee9)"><path fill="#000000" d="M 237.816406 263.894531 L 196.09375 222.269531 L 151.257812 260.800781 C 150.257812 261.839844 148.855469 262.457031 147.3125 262.421875 C 144.386719 262.347656 142.078125 259.929688 142.148438 257.003906 L 144.242188 170.550781 L 92.179688 118.632812 C 90.101562 116.566406 90.117188 113.226562 92.164062 111.148438 C 92.855469 110.453125 93.710938 109.996094 94.609375 109.757812 L 352.28125 44 C 355.121094 43.289062 357.988281 44.984375 358.722656 47.820312 C 359.097656 49.261719 358.824219 50.730469 358.101562 51.90625 L 246.226562 262.625 C 244.859375 265.195312 241.667969 266.179688 239.097656 264.816406 C 238.605469 264.566406 238.179688 264.25 237.816406 263.894531 Z M 188.59375 214.800781 L 154.582031 180.882812 L 153.023438 245.382812 Z M 150.570312 161.941406 L 318.582031 63.523438 L 106.222656 117.714844 Z M 340.207031 63.09375 L 158.285156 169.632812 L 240.226562 251.375 Z M 340.207031 63.09375 " fill-opacity="1" fill-rule="nonzero"/></g></g></g></g><path stroke-linecap="round" transform="matrix(2.154629, -2.088154, 1.957816, 2.020143, 145.844145, 302.152187)" fill="none" stroke-linejoin="miter" d="M 0.499806 0.000425459 L 24.498274 0.0000332055 " stroke="#000000" stroke-width="1" stroke-opacity="1" stroke-miterlimit="4"/><path stroke-linecap="round" transform="matrix(2.158089, -2.091506, 1.957816, 2.020143, 133.780805, 344.24523)" fill="none" stroke-linejoin="miter" d="M 0.499946 -0.000183358 L 37.185438 0.000496464 " stroke="#000000" stroke-width="1" stroke-opacity="1" stroke-miterlimit="4"/><path stroke-linecap="round" transform="matrix(2.154629, -2.088154, 1.957816, 2.020143, 59.417485, 214.927061)" fill="none" stroke-linejoin="miter" d="M 0.50035 0.000276415 L 24.498818 -0.000115838 " stroke="#000000" stroke-width="1" stroke-opacity="1" stroke-miterlimit="4"/><path stroke-linecap="round" transform="matrix(2.158089, -2.091506, 1.957816, 2.020143, 16.22434, 227.166446)" fill="none" stroke-linejoin="miter" d="M 0.500219 0.000424766 L 37.184777 0.000138237 " stroke="#000000" stroke-width="1" stroke-opacity="1" stroke-miterlimit="4"/><path stroke-linecap="round" transform="matrix(-2.117876, -2.117876, 1.989223, -1.989223, 240.942893, 259.548499)" fill="none" stroke-linejoin="miter" d="M 0.500572 0.0000343672 L 66.862763 0.0000343672 " stroke="#000000" stroke-width="1" stroke-opacity="1" stroke-miterlimit="4"/></svg>