<svg xmlns="http://www.w3.org/2000/svg" xmlns:xlink="http://www.w3.org/1999/xlink" width="500" zoomAndPan="magnify" viewBox="0 0 375 187.499995" height="250" preserveAspectRatio="xMidYMid meet" version="1.0"><defs><g/><clipPath id="1404218c4f"><path d="M 39 4 L 178 4 L 178 119 L 39 119 Z M 39 4 " clip-rule="nonzero"/></clipPath><clipPath id="0b8cb09571"><path d="M 39.945312 1.554688 L 177.535156 4.886719 L 174.746094 120.046875 L 37.15625 116.714844 Z M 39.945312 1.554688 " clip-rule="nonzero"/></clipPath><clipPath id="32a20b04ff"><path d="M 39.945312 1.554688 L 177.535156 4.886719 L 174.746094 120.046875 L 37.15625 116.714844 Z M 39.945312 1.554688 " clip-rule="nonzero"/></clipPath><clipPath id="c4fa541ac7"><path d="M 39.945312 1.554688 L 177.535156 4.886719 L 174.746094 120.046875 L 37.15625 116.714844 Z M 39.945312 1.554688 " clip-rule="nonzero"/></clipPath><clipPath id="52e2f7f8eb"><path d="M 0.5 47 L 55 47 L 55 111 L 0.5 111 Z M 0.5 47 " clip-rule="nonzero"/></clipPath></defs><g clip-path="url(#1404218c4f)"><g clip-path="url(#0b8cb09571)"><g clip-path="url(#32a20b04ff)"><g clip-path="url(#c4fa541ac7)"><path fill="#000000" d="M 114.945312 117.851562 L 93.496094 96.46875 L 70.453125 116.261719 C 69.9375 116.792969 69.214844 117.109375 68.421875 117.09375 C 66.917969 117.054688 65.734375 115.8125 65.769531 114.308594 L 66.84375 69.898438 L 40.082031 43.230469 C 39.015625 42.167969 39.023438 40.453125 40.074219 39.386719 C 40.429688 39.027344 40.871094 38.792969 41.332031 38.671875 L 173.777344 4.894531 C 175.238281 4.53125 176.710938 5.402344 177.089844 6.859375 C 177.28125 7.597656 177.140625 8.351562 176.769531 8.957031 L 119.265625 117.199219 C 118.5625 118.519531 116.921875 119.023438 115.601562 118.324219 C 115.347656 118.195312 115.128906 118.035156 114.945312 117.851562 Z M 89.640625 92.632812 L 72.160156 75.207031 L 71.359375 108.339844 Z M 70.097656 65.480469 L 156.457031 14.925781 L 47.300781 42.757812 Z M 167.574219 14.703125 L 74.0625 69.429688 L 116.183594 111.417969 Z M 167.574219 14.703125 " fill-opacity="1" fill-rule="nonzero"/></g></g></g></g><path stroke-linecap="round" transform="matrix(1.624602, -1.57448, 1.417719, 1.462851, 67.892942, 137.922427)" fill="none" stroke-linejoin="miter" d="M 0.500096 0.00115069 L 16.693672 -0.00127261 " stroke="#000000" stroke-width="1" stroke-opacity="1" stroke-miterlimit="4"/><path stroke-linecap="round" transform="matrix(1.616604, -1.566727, 1.417719, 1.462851, 61.685966, 159.576172)" fill="none" stroke-linejoin="miter" d="M 0.500533 0.00068053 L 25.419131 -0.000904834 " stroke="#000000" stroke-width="1" stroke-opacity="1" stroke-miterlimit="4"/><path stroke-linecap="round" transform="matrix(1.624602, -1.57448, 1.417719, 1.462851, 23.429035, 93.047729)" fill="none" stroke-linejoin="miter" d="M 0.499892 0.000724557 L 16.693506 0.00101273 " stroke="#000000" stroke-width="1" stroke-opacity="1" stroke-miterlimit="4"/><g clip-path="url(#52e2f7f8eb)"><path stroke-linecap="round" transform="matrix(1.616604, -1.566727, 1.417719, 1.462851, 1.206719, 99.342682)" fill="none" stroke-linejoin="miter" d="M 0.500417 -0.0000492593 L 25.420261 -0.00030013 " stroke="#000000" stroke-width="1" stroke-opacity="1" stroke-miterlimit="4"/></g><g fill="#000000" fill-opacity="1"><g transform="translate(122.343037, 175.338209)"><g><path d="M 3.921875 -0.84375 L 3.921875 -33.734375 C 3.921875 -34.273438 4.203125 -34.546875 4.765625 -34.546875 C 5.335938 -34.546875 5.625 -34.273438 5.625 -33.734375 L 5.625 -1.703125 L 19.984375 -1.703125 C 20.460938 -1.703125 20.703125 -1.414062 20.703125 -0.84375 C 20.703125 -0.28125 20.460938 0 19.984375 0 L 4.765625 0 C 4.203125 0 3.921875 -0.28125 3.921875 -0.84375 Z M 3.921875 -0.84375 "/></g></g></g><g fill="#000000" fill-opacity="1"><g transform="translate(143.697114, 175.338209)"><g><path d="M 1.65625 -5.953125 C 1.65625 -8.316406 2.59375 -9.945312 4.46875 -10.84375 C 6.34375 -11.738281 9.070312 -12.1875 12.65625 -12.1875 L 15.3125 -12.1875 L 15.3125 -13.515625 C 15.3125 -15.523438 14.789062 -17.265625 13.75 -18.734375 C 12.707031 -20.203125 11.148438 -20.9375 9.078125 -20.9375 C 8.222656 -20.9375 7.425781 -20.832031 6.6875 -20.625 C 5.945312 -20.414062 5.367188 -20.203125 4.953125 -19.984375 C 4.546875 -19.765625 4.28125 -19.65625 4.15625 -19.65625 C 3.90625 -19.65625 3.703125 -19.765625 3.546875 -19.984375 C 3.390625 -20.203125 3.3125 -20.40625 3.3125 -20.59375 C 3.3125 -21.070312 3.929688 -21.519531 5.171875 -21.9375 C 6.421875 -22.363281 7.753906 -22.578125 9.171875 -22.578125 C 11.878906 -22.578125 13.851562 -21.71875 15.09375 -20 C 16.34375 -18.289062 16.96875 -16.128906 16.96875 -13.515625 L 16.96875 -0.84375 C 16.96875 -0.28125 16.695312 0 16.15625 0 C 15.90625 0 15.703125 -0.078125 15.546875 -0.234375 C 15.390625 -0.390625 15.3125 -0.59375 15.3125 -0.84375 L 15.3125 -3.3125 C 13.226562 -0.914062 10.863281 0.28125 8.21875 0.28125 C 6.269531 0.28125 4.6875 -0.242188 3.46875 -1.296875 C 2.257812 -2.347656 1.65625 -3.898438 1.65625 -5.953125 Z M 3.3125 -5.953125 C 3.3125 -4.441406 3.757812 -3.300781 4.65625 -2.53125 C 5.550781 -1.757812 6.722656 -1.375 8.171875 -1.375 C 9.867188 -1.375 11.484375 -1.972656 13.015625 -3.171875 C 14.546875 -4.367188 15.3125 -5.5 15.3125 -6.5625 L 15.3125 -10.53125 L 12.703125 -10.53125 C 11.285156 -10.53125 10.097656 -10.484375 9.140625 -10.390625 C 8.179688 -10.296875 7.210938 -10.097656 6.234375 -9.796875 C 5.253906 -9.503906 4.519531 -9.035156 4.03125 -8.390625 C 3.550781 -7.742188 3.3125 -6.929688 3.3125 -5.953125 Z M 3.3125 -5.953125 "/></g></g></g><g fill="#000000" fill-opacity="1"><g transform="translate(163.681126, 175.338209)"><g><path d="M 3.21875 -0.84375 L 3.21875 -21.5 C 3.21875 -22.03125 3.484375 -22.296875 4.015625 -22.296875 C 4.578125 -22.296875 4.859375 -22.03125 4.859375 -21.5 L 4.859375 -19 C 6.285156 -21.382812 8.476562 -22.578125 11.4375 -22.578125 L 13.1875 -22.578125 C 13.40625 -22.578125 13.59375 -22.488281 13.75 -22.3125 C 13.90625 -22.144531 13.984375 -21.953125 13.984375 -21.734375 C 13.984375 -21.515625 13.90625 -21.328125 13.75 -21.171875 C 13.59375 -21.015625 13.40625 -20.9375 13.1875 -20.9375 L 11.4375 -20.9375 C 9.664062 -20.9375 8.125 -20.304688 6.8125 -19.046875 C 5.507812 -17.785156 4.859375 -16.128906 4.859375 -14.078125 L 4.859375 -0.84375 C 4.859375 -0.625 4.769531 -0.425781 4.59375 -0.25 C 4.425781 -0.0820312 4.234375 0 4.015625 0 C 3.796875 0 3.609375 -0.0820312 3.453125 -0.25 C 3.296875 -0.425781 3.21875 -0.625 3.21875 -0.84375 Z M 3.21875 -0.84375 "/></g></g></g><g fill="#000000" fill-opacity="1"><g transform="translate(178.232133, 175.338209)"><g><path d="M 1.796875 -2.78125 C 1.796875 -3.007812 1.863281 -3.203125 2 -3.359375 C 2.144531 -3.515625 2.296875 -3.59375 2.453125 -3.59375 C 2.609375 -3.59375 2.847656 -3.46875 3.171875 -3.21875 L 4.15625 -2.453125 C 4.53125 -2.203125 5.117188 -1.957031 5.921875 -1.71875 C 6.734375 -1.488281 7.640625 -1.375 8.640625 -1.375 C 10.503906 -1.375 11.890625 -1.734375 12.796875 -2.453125 C 13.710938 -3.179688 14.171875 -4.128906 14.171875 -5.296875 C 14.171875 -6.648438 13.757812 -7.710938 12.9375 -8.484375 C 12.125 -9.253906 11.132812 -9.8125 9.96875 -10.15625 L 6.46875 -11.25 C 5.300781 -11.625 4.304688 -12.226562 3.484375 -13.0625 C 2.671875 -13.894531 2.265625 -15.019531 2.265625 -16.4375 C 2.265625 -18.050781 2.863281 -19.476562 4.0625 -20.71875 C 5.257812 -21.957031 6.992188 -22.578125 9.265625 -22.578125 C 10.648438 -22.578125 11.957031 -22.359375 13.1875 -21.921875 C 14.414062 -21.484375 15.03125 -21.039062 15.03125 -20.59375 C 15.03125 -20.40625 14.941406 -20.203125 14.765625 -19.984375 C 14.585938 -19.765625 14.40625 -19.65625 14.21875 -19.65625 C 14.1875 -19.65625 13.644531 -19.867188 12.59375 -20.296875 C 11.539062 -20.722656 10.445312 -20.9375 9.3125 -20.9375 C 7.476562 -20.9375 6.117188 -20.46875 5.234375 -19.53125 C 4.359375 -18.601562 3.921875 -17.585938 3.921875 -16.484375 C 3.921875 -15.359375 4.328125 -14.460938 5.140625 -13.796875 C 5.960938 -13.140625 6.957031 -12.648438 8.125 -12.328125 C 9.289062 -12.015625 10.457031 -11.664062 11.625 -11.28125 C 12.789062 -10.90625 13.78125 -10.226562 14.59375 -9.25 C 15.414062 -8.28125 15.828125 -6.992188 15.828125 -5.390625 C 15.828125 -3.617188 15.195312 -2.226562 13.9375 -1.21875 C 12.675781 -0.21875 10.925781 0.28125 8.6875 0.28125 C 6.738281 0.28125 5.101562 -0.0625 3.78125 -0.75 C 2.457031 -1.445312 1.796875 -2.125 1.796875 -2.78125 Z M 1.796875 -2.78125 "/></g></g></g><g fill="#000000" fill-opacity="1"><g transform="translate(195.85397, 175.338209)"><g><path d="M 2.40625 -8.3125 L 2.40625 -14.21875 C 2.40625 -16.488281 3.234375 -18.445312 4.890625 -20.09375 C 6.546875 -21.75 8.519531 -22.578125 10.8125 -22.578125 C 13.082031 -22.578125 15.046875 -21.765625 16.703125 -20.140625 C 18.359375 -18.523438 19.1875 -16.503906 19.1875 -14.078125 C 19.1875 -13.265625 19.085938 -12.601562 18.890625 -12.09375 C 18.703125 -11.59375 18.390625 -11.226562 17.953125 -11 C 17.515625 -10.78125 17.113281 -10.644531 16.75 -10.59375 C 16.382812 -10.550781 15.890625 -10.53125 15.265625 -10.53125 L 4.0625 -10.53125 L 4.0625 -8.3125 C 4.0625 -6.207031 4.800781 -4.523438 6.28125 -3.265625 C 7.757812 -2.003906 9.679688 -1.375 12.046875 -1.375 C 13.210938 -1.375 14.1875 -1.535156 14.96875 -1.859375 C 15.757812 -2.191406 16.351562 -2.515625 16.75 -2.828125 C 17.144531 -3.148438 17.4375 -3.3125 17.625 -3.3125 C 17.84375 -3.3125 18.035156 -3.210938 18.203125 -3.015625 C 18.378906 -2.828125 18.46875 -2.640625 18.46875 -2.453125 C 18.46875 -2.140625 18.21875 -1.769531 17.71875 -1.34375 C 17.21875 -0.914062 16.445312 -0.535156 15.40625 -0.203125 C 14.363281 0.117188 13.210938 0.28125 11.953125 0.28125 C 9.148438 0.28125 6.859375 -0.507812 5.078125 -2.09375 C 3.296875 -3.6875 2.40625 -5.757812 2.40625 -8.3125 Z M 4.0625 -12.1875 L 14.6875 -12.1875 C 15.851562 -12.1875 16.617188 -12.296875 16.984375 -12.515625 C 17.347656 -12.742188 17.53125 -13.21875 17.53125 -13.9375 C 17.53125 -15.726562 16.898438 -17.34375 15.640625 -18.78125 C 14.378906 -20.21875 12.769531 -20.9375 10.8125 -20.9375 C 8.925781 -20.9375 7.328125 -20.265625 6.015625 -18.921875 C 4.710938 -17.585938 4.0625 -16.019531 4.0625 -14.21875 Z M 4.0625 -12.1875 "/></g></g></g><g fill="#000000" fill-opacity="1"><g transform="translate(216.877348, 175.338209)"><g><path d="M 3.21875 -0.84375 L 3.21875 -21.5 C 3.21875 -22.03125 3.484375 -22.296875 4.015625 -22.296875 C 4.578125 -22.296875 4.859375 -22.03125 4.859375 -21.5 L 4.859375 -19 C 6.222656 -21.382812 8.335938 -22.578125 11.203125 -22.578125 C 13.523438 -22.578125 15.519531 -21.742188 17.1875 -20.078125 C 18.863281 -18.410156 19.703125 -16.410156 19.703125 -14.078125 L 19.703125 -0.84375 C 19.703125 -0.28125 19.421875 0 18.859375 0 C 18.316406 0 18.046875 -0.28125 18.046875 -0.84375 L 18.046875 -14.078125 C 18.046875 -15.835938 17.375 -17.421875 16.03125 -18.828125 C 14.695312 -20.234375 13.132812 -20.9375 11.34375 -20.9375 C 9.632812 -20.9375 8.125 -20.304688 6.8125 -19.046875 C 5.507812 -17.785156 4.859375 -16.128906 4.859375 -14.078125 L 4.859375 -0.84375 C 4.859375 -0.625 4.769531 -0.425781 4.59375 -0.25 C 4.425781 -0.0820312 4.234375 0 4.015625 0 C 3.796875 0 3.609375 -0.0820312 3.453125 -0.25 C 3.296875 -0.425781 3.21875 -0.625 3.21875 -0.84375 Z M 3.21875 -0.84375 "/></g></g></g><g fill="#000000" fill-opacity="1"><g transform="translate(239.60149, 175.338209)"><g><path d="M 1.1875 -0.75 C 1.1875 -0.875 1.203125 -0.972656 1.234375 -1.046875 L 11.484375 -34.15625 C 11.609375 -34.601562 11.890625 -34.828125 12.328125 -34.828125 C 12.773438 -34.828125 13.078125 -34.601562 13.234375 -34.15625 L 23.390625 -1.046875 C 23.390625 -1.015625 23.394531 -0.972656 23.40625 -0.921875 C 23.425781 -0.867188 23.4375 -0.828125 23.4375 -0.796875 C 23.4375 -0.578125 23.34375 -0.390625 23.15625 -0.234375 C 22.96875 -0.078125 22.742188 0 22.484375 0 C 22.109375 0 21.859375 -0.203125 21.734375 -0.609375 L 19.328125 -8.359375 L 5.25 -8.359375 L 2.875 -0.609375 C 2.75 -0.203125 2.46875 0 2.03125 0 C 1.46875 0 1.1875 -0.25 1.1875 -0.75 Z M 5.765625 -10.0625 L 18.8125 -10.0625 L 12.328125 -31.234375 Z M 5.765625 -10.0625 "/></g></g></g><g fill="#000000" fill-opacity="1"><g transform="translate(264.21538, 175.338209)"><g><path d="M 0.890625 -21.453125 C 0.890625 -21.703125 0.976562 -21.90625 1.15625 -22.0625 C 1.332031 -22.21875 1.53125 -22.296875 1.75 -22.296875 C 2.125 -22.296875 2.390625 -22.125 2.546875 -21.78125 L 9.265625 -3.21875 L 15.921875 -21.5 L 15.96875 -21.734375 C 16.03125 -21.859375 16.066406 -21.925781 16.078125 -21.9375 C 16.097656 -21.957031 16.140625 -22.015625 16.203125 -22.109375 C 16.265625 -22.203125 16.332031 -22.253906 16.40625 -22.265625 C 16.488281 -22.285156 16.59375 -22.296875 16.71875 -22.296875 C 16.945312 -22.296875 17.15625 -22.21875 17.34375 -22.0625 C 17.53125 -21.90625 17.625 -21.71875 17.625 -21.5 C 17.625 -21.40625 17.5625 -21.171875 17.4375 -20.796875 L 10.0625 -0.28125 C 9.90625 0.09375 9.632812 0.28125 9.25 0.28125 C 8.875 0.28125 8.609375 0.09375 8.453125 -0.28125 L 1.09375 -20.796875 C 0.957031 -21.171875 0.890625 -21.390625 0.890625 -21.453125 Z M 0.890625 -21.453125 "/></g></g></g><g fill="#000000" fill-opacity="1"><g transform="translate(282.734855, 175.338209)"><g><path d="M 2.953125 -30.125 C 2.648438 -30.425781 2.5 -30.78125 2.5 -31.1875 C 2.5 -31.59375 2.648438 -31.9375 2.953125 -32.21875 C 3.253906 -32.507812 3.609375 -32.65625 4.015625 -32.65625 C 4.421875 -32.65625 4.765625 -32.507812 5.046875 -32.21875 C 5.335938 -31.9375 5.484375 -31.59375 5.484375 -31.1875 C 5.484375 -30.78125 5.335938 -30.425781 5.046875 -30.125 C 4.765625 -29.820312 4.421875 -29.671875 4.015625 -29.671875 C 3.609375 -29.671875 3.253906 -29.820312 2.953125 -30.125 Z M 3.21875 -0.84375 L 3.21875 -21.5 C 3.21875 -21.71875 3.296875 -21.90625 3.453125 -22.0625 C 3.609375 -22.21875 3.796875 -22.296875 4.015625 -22.296875 C 4.578125 -22.296875 4.859375 -22.03125 4.859375 -21.5 L 4.859375 -0.84375 C 4.859375 -0.625 4.769531 -0.425781 4.59375 -0.25 C 4.425781 -0.0820312 4.234375 0 4.015625 0 C 3.796875 0 3.609375 -0.0820312 3.453125 -0.25 C 3.296875 -0.425781 3.21875 -0.625 3.21875 -0.84375 Z M 3.21875 -0.84375 "/></g></g></g><g fill="#000000" fill-opacity="1"><g transform="translate(290.813504, 175.338209)"><g><path d="M 1.65625 -5.953125 C 1.65625 -8.316406 2.59375 -9.945312 4.46875 -10.84375 C 6.34375 -11.738281 9.070312 -12.1875 12.65625 -12.1875 L 15.3125 -12.1875 L 15.3125 -13.515625 C 15.3125 -15.523438 14.789062 -17.265625 13.75 -18.734375 C 12.707031 -20.203125 11.148438 -20.9375 9.078125 -20.9375 C 8.222656 -20.9375 7.425781 -20.832031 6.6875 -20.625 C 5.945312 -20.414062 5.367188 -20.203125 4.953125 -19.984375 C 4.546875 -19.765625 4.28125 -19.65625 4.15625 -19.65625 C 3.90625 -19.65625 3.703125 -19.765625 3.546875 -19.984375 C 3.390625 -20.203125 3.3125 -20.40625 3.3125 -20.59375 C 3.3125 -21.070312 3.929688 -21.519531 5.171875 -21.9375 C 6.421875 -22.363281 7.753906 -22.578125 9.171875 -22.578125 C 11.878906 -22.578125 13.851562 -21.71875 15.09375 -20 C 16.34375 -18.289062 16.96875 -16.128906 16.96875 -13.515625 L 16.96875 -0.84375 C 16.96875 -0.28125 16.695312 0 16.15625 0 C 15.90625 0 15.703125 -0.078125 15.546875 -0.234375 C 15.390625 -0.390625 15.3125 -0.59375 15.3125 -0.84375 L 15.3125 -3.3125 C 13.226562 -0.914062 10.863281 0.28125 8.21875 0.28125 C 6.269531 0.28125 4.6875 -0.242188 3.46875 -1.296875 C 2.257812 -2.347656 1.65625 -3.898438 1.65625 -5.953125 Z M 3.3125 -5.953125 C 3.3125 -4.441406 3.757812 -3.300781 4.65625 -2.53125 C 5.550781 -1.757812 6.722656 -1.375 8.171875 -1.375 C 9.867188 -1.375 11.484375 -1.972656 13.015625 -3.171875 C 14.546875 -4.367188 15.3125 -5.5 15.3125 -6.5625 L 15.3125 -10.53125 L 12.703125 -10.53125 C 11.285156 -10.53125 10.097656 -10.484375 9.140625 -10.390625 C 8.179688 -10.296875 7.210938 -10.097656 6.234375 -9.796875 C 5.253906 -9.503906 4.519531 -9.035156 4.03125 -8.390625 C 3.550781 -7.742188 3.3125 -6.929688 3.3125 -5.953125 Z M 3.3125 -5.953125 "/></g></g></g><g fill="#000000" fill-opacity="1"><g transform="translate(310.797516, 175.338209)"><g><path d="M 3.125 -6.5625 L 3.125 -32.40625 C 3.125 -32.632812 3.207031 -32.828125 3.375 -32.984375 C 3.550781 -33.140625 3.734375 -33.21875 3.921875 -33.21875 C 4.140625 -33.21875 4.332031 -33.140625 4.5 -32.984375 C 4.675781 -32.828125 4.765625 -32.632812 4.765625 -32.40625 L 4.765625 -22.296875 L 11.15625 -22.296875 C 11.375 -22.296875 11.5625 -22.207031 11.71875 -22.03125 C 11.875 -21.863281 11.953125 -21.671875 11.953125 -21.453125 C 11.953125 -21.234375 11.875 -21.039062 11.71875 -20.875 C 11.5625 -20.71875 11.375 -20.640625 11.15625 -20.640625 L 4.765625 -20.640625 L 4.765625 -6.5625 C 4.765625 -4.769531 5.160156 -3.503906 5.953125 -2.765625 C 6.742188 -2.023438 8.097656 -1.65625 10.015625 -1.65625 L 11.109375 -1.65625 C 11.328125 -1.65625 11.515625 -1.578125 11.671875 -1.421875 C 11.828125 -1.265625 11.90625 -1.070312 11.90625 -0.84375 C 11.90625 -0.625 11.828125 -0.425781 11.671875 -0.25 C 11.515625 -0.0820312 11.328125 0 11.109375 0 L 10.015625 0 C 5.421875 0 3.125 -2.1875 3.125 -6.5625 Z M 3.125 -6.5625 "/></g></g></g><g fill="#000000" fill-opacity="1"><g transform="translate(323.647759, 175.338209)"><g><path d="M 2.953125 -30.125 C 2.648438 -30.425781 2.5 -30.78125 2.5 -31.1875 C 2.5 -31.59375 2.648438 -31.9375 2.953125 -32.21875 C 3.253906 -32.507812 3.609375 -32.65625 4.015625 -32.65625 C 4.421875 -32.65625 4.765625 -32.507812 5.046875 -32.21875 C 5.335938 -31.9375 5.484375 -31.59375 5.484375 -31.1875 C 5.484375 -30.78125 5.335938 -30.425781 5.046875 -30.125 C 4.765625 -29.820312 4.421875 -29.671875 4.015625 -29.671875 C 3.609375 -29.671875 3.253906 -29.820312 2.953125 -30.125 Z M 3.21875 -0.84375 L 3.21875 -21.5 C 3.21875 -21.71875 3.296875 -21.90625 3.453125 -22.0625 C 3.609375 -22.21875 3.796875 -22.296875 4.015625 -22.296875 C 4.578125 -22.296875 4.859375 -22.03125 4.859375 -21.5 L 4.859375 -0.84375 C 4.859375 -0.625 4.769531 -0.425781 4.59375 -0.25 C 4.425781 -0.0820312 4.234375 0 4.015625 0 C 3.796875 0 3.609375 -0.0820312 3.453125 -0.25 C 3.296875 -0.425781 3.21875 -0.625 3.21875 -0.84375 Z M 3.21875 -0.84375 "/></g></g></g><g fill="#000000" fill-opacity="1"><g transform="translate(331.726408, 175.338209)"><g><path d="M 2.359375 -8.3125 L 2.359375 -14.078125 C 2.359375 -16.347656 3.1875 -18.332031 4.84375 -20.03125 C 6.5 -21.726562 8.457031 -22.578125 10.71875 -22.578125 C 12.988281 -22.578125 14.957031 -21.742188 16.625 -20.078125 C 18.300781 -18.410156 19.140625 -16.410156 19.140625 -14.078125 L 19.140625 -8.3125 C 19.140625 -6.039062 18.296875 -4.039062 16.609375 -2.3125 C 14.921875 -0.582031 12.957031 0.28125 10.71875 0.28125 C 8.488281 0.28125 6.535156 -0.582031 4.859375 -2.3125 C 3.191406 -4.039062 2.359375 -6.039062 2.359375 -8.3125 Z M 4.015625 -8.3125 C 4.015625 -6.519531 4.675781 -4.914062 6 -3.5 C 7.320312 -2.082031 8.894531 -1.375 10.71875 -1.375 C 12.550781 -1.375 14.132812 -2.082031 15.46875 -3.5 C 16.8125 -4.914062 17.484375 -6.519531 17.484375 -8.3125 L 17.484375 -14.078125 C 17.484375 -15.835938 16.820312 -17.421875 15.5 -18.828125 C 14.175781 -20.234375 12.582031 -20.9375 10.71875 -20.9375 C 8.863281 -20.9375 7.28125 -20.234375 5.96875 -18.828125 C 4.664062 -17.421875 4.015625 -15.835938 4.015625 -14.078125 Z M 4.015625 -8.3125 "/></g></g></g><g fill="#000000" fill-opacity="1"><g transform="translate(353.222213, 175.338209)"><g><path d="M 3.21875 -0.84375 L 3.21875 -21.5 C 3.21875 -22.03125 3.484375 -22.296875 4.015625 -22.296875 C 4.578125 -22.296875 4.859375 -22.03125 4.859375 -21.5 L 4.859375 -19 C 6.222656 -21.382812 8.335938 -22.578125 11.203125 -22.578125 C 13.523438 -22.578125 15.519531 -21.742188 17.1875 -20.078125 C 18.863281 -18.410156 19.703125 -16.410156 19.703125 -14.078125 L 19.703125 -0.84375 C 19.703125 -0.28125 19.421875 0 18.859375 0 C 18.316406 0 18.046875 -0.28125 18.046875 -0.84375 L 18.046875 -14.078125 C 18.046875 -15.835938 17.375 -17.421875 16.03125 -18.828125 C 14.695312 -20.234375 13.132812 -20.9375 11.34375 -20.9375 C 9.632812 -20.9375 8.125 -20.304688 6.8125 -19.046875 C 5.507812 -17.785156 4.859375 -16.128906 4.859375 -14.078125 L 4.859375 -0.84375 C 4.859375 -0.625 4.769531 -0.425781 4.59375 -0.25 C 4.425781 -0.0820312 4.234375 0 4.015625 0 C 3.796875 0 3.609375 -0.0820312 3.453125 -0.25 C 3.296875 -0.425781 3.21875 -0.625 3.21875 -0.84375 Z M 3.21875 -0.84375 "/></g></g></g><path stroke-linecap="round" transform="matrix(-1.586937, -1.586937, 1.440462, -1.440462, 116.819704, 115.584024)" fill="none" stroke-linejoin="miter" d="M 0.500121 0.000903026 L 45.831153 0.000903026 " stroke="#000000" stroke-width="1" stroke-opacity="1" stroke-miterlimit="4"/></svg>